<?xml version="1.0" encoding="UTF-8"?>
<svg version="1.1" xmlns="http://www.w3.org/2000/svg" width="1280" height="1280">
<path d="M0 0 C2.37 -0 4.75 -0.01 7.12 -0.01 C11.39 -0.02 15.66 -0.01 19.93 -0.01 C21.12 -0.01 22.3 -0.01 23.53 -0.02 C29.65 0 35.57 0.32 41.63 1.12 C41.63 1.78 41.63 2.44 41.63 3.12 C42.52 3.04 43.41 2.96 44.32 2.87 C65.15 3.04 87.17 20.48 101.12 34.53 C110.86 44.82 118.11 56.84 123.38 69.94 C123.81 70.96 123.81 70.96 124.24 72.01 C128.85 84.03 130.08 96.16 129.93 108.93 C129.92 110.12 129.92 111.3 129.92 112.52 C129.9 116.87 129.86 121.21 129.82 125.56 C129.76 135.32 129.7 145.07 129.63 155.12 C95.97 155.12 62.31 155.12 27.63 155.12 C27.63 136.97 27.63 118.82 27.63 100.12 C7.94 100.16 -11.75 100.22 -31.44 100.31 C-40.58 100.35 -49.72 100.38 -58.87 100.39 C-66.84 100.41 -74.82 100.43 -82.79 100.48 C-87.01 100.5 -91.23 100.52 -95.45 100.52 C-99.43 100.51 -103.41 100.53 -107.39 100.56 C-108.84 100.57 -110.29 100.57 -111.74 100.57 C-130.56 100.51 -146.01 105.76 -160.37 118.12 C-161.05 118.69 -161.72 119.27 -162.42 119.85 C-171.46 128.1 -179.16 141.28 -179.77 153.74 C-179.79 155.38 -179.8 157.03 -179.8 158.68 C-179.81 159.59 -179.82 160.5 -179.83 161.43 C-179.86 164.41 -179.87 167.38 -179.88 170.35 C-179.9 172.42 -179.91 174.49 -179.93 176.56 C-179.98 181.99 -180.01 187.42 -180.04 192.85 C-180.07 198.4 -180.11 203.95 -180.16 209.5 C-180.24 220.38 -180.31 231.25 -180.37 242.12 C-178.98 242.13 -178.98 242.13 -177.57 242.14 C-155.18 242.24 -132.79 242.35 -110.4 242.46 C-99.58 242.52 -88.75 242.57 -77.92 242.62 C-68.49 242.66 -59.05 242.71 -49.62 242.76 C-44.62 242.79 -39.62 242.81 -34.62 242.83 C-29.92 242.85 -25.22 242.88 -20.53 242.9 C-18.8 242.91 -17.07 242.92 -15.34 242.93 C-12.99 242.94 -10.63 242.95 -8.28 242.97 C-6.96 242.97 -5.64 242.98 -4.29 242.98 C-1.37 243.12 -1.37 243.12 -0.37 244.12 C-0.27 247.19 -0.23 250.24 -0.24 253.31 C-0.24 254.27 -0.23 255.24 -0.23 256.23 C-0.23 259.43 -0.23 262.64 -0.23 265.84 C-0.23 268.06 -0.23 270.27 -0.23 272.49 C-0.23 277.14 -0.23 281.79 -0.24 286.44 C-0.24 292.42 -0.24 298.39 -0.23 304.37 C-0.23 308.95 -0.23 313.52 -0.23 318.1 C-0.23 320.31 -0.23 322.51 -0.23 324.71 C-0.23 327.79 -0.23 330.86 -0.24 333.94 C-0.24 334.86 -0.23 335.78 -0.23 336.73 C-0.25 343.01 -0.25 343.01 -1.37 344.12 C-3.67 344.23 -5.98 344.27 -8.28 344.28 C-9.01 344.29 -9.74 344.29 -10.5 344.3 C-12.97 344.31 -15.44 344.32 -17.91 344.33 C-19.7 344.34 -21.5 344.35 -23.29 344.36 C-28.11 344.39 -32.92 344.41 -37.74 344.43 C-42.25 344.45 -46.77 344.47 -51.28 344.5 C-64.5 344.56 -77.71 344.62 -90.93 344.69 C-120.44 344.83 -149.96 344.97 -180.37 345.12 C-180.37 424.65 -180.37 504.18 -180.37 586.12 C-199.16 586.12 -199.16 586.12 -206.37 583.12 C-207.89 582.72 -209.41 582.32 -210.93 581.94 C-221.82 578.69 -233.87 572.68 -242.37 565.12 C-242.37 564.46 -242.37 563.8 -242.37 563.12 C-245.46 561.36 -246.6 561.12 -250.37 561.12 C-252.85 562.86 -252.85 562.86 -255.37 565.19 C-267.26 575.24 -280.63 581.44 -295.85 584.55 C-298.29 584.87 -298.29 584.87 -299.37 586.12 C-302.23 586.2 -305.07 586.22 -307.93 586.19 C-308.74 586.18 -309.54 586.18 -310.37 586.17 C-312.37 586.16 -314.37 586.14 -316.37 586.12 C-316.39 555.71 -316.41 525.3 -316.42 494.88 C-316.42 491.3 -316.42 487.71 -316.42 484.12 C-316.42 483.05 -316.42 483.05 -316.42 481.96 C-316.43 470.38 -316.44 458.8 -316.44 447.23 C-316.45 435.35 -316.46 423.48 -316.46 411.61 C-316.46 404.94 -316.47 398.27 -316.47 391.6 C-316.48 385.32 -316.48 379.05 -316.48 372.78 C-316.48 370.47 -316.48 368.16 -316.49 365.85 C-316.49 362.72 -316.49 359.58 -316.49 356.44 C-316.49 355.05 -316.49 355.05 -316.5 353.64 C-316.48 347.35 -316.48 347.35 -315.37 345.12 C-317.05 345.12 -317.05 345.12 -318.78 345.12 C-346.2 345.08 -373.62 345.02 -401.03 344.94 C-414.29 344.9 -427.55 344.87 -440.81 344.85 C-452.38 344.84 -463.94 344.81 -475.5 344.77 C-481.62 344.75 -487.73 344.73 -493.85 344.73 C-499.62 344.73 -505.39 344.71 -511.16 344.68 C-513.26 344.67 -515.37 344.67 -517.48 344.68 C-529.48 344.71 -539.95 343.97 -551.37 340.12 C-553.03 339.6 -553.03 339.6 -554.73 339.07 C-568.79 334.55 -582.09 324.56 -592.37 314.12 C-593.18 313.31 -594 312.49 -594.84 311.65 C-605.3 300.69 -613.14 288.37 -618.55 274.24 C-619.27 272.39 -620.01 270.54 -620.75 268.69 C-626.12 252.88 -625.08 236.16 -625.01 219.68 C-624.99 215.17 -625 210.67 -625 206.17 C-625.01 198.62 -624.99 191.07 -624.96 183.52 C-624.93 174.83 -624.93 166.14 -624.95 157.45 C-624.97 149.03 -624.96 140.62 -624.94 132.2 C-624.93 128.65 -624.94 125.09 -624.94 121.53 C-624.95 117.33 -624.94 113.14 -624.91 108.94 C-624.9 107.41 -624.9 105.89 -624.91 104.36 C-625.03 76.05 -612.48 51.78 -593.24 31.62 C-579.5 18.2 -559.3 3.64 -539.43 2.99 C-537.91 3.06 -537.91 3.06 -536.37 3.12 C-536.37 2.46 -536.37 1.8 -536.37 1.12 C-459.15 1.12 -381.93 1.12 -302.37 1.12 C-302.37 1.78 -302.37 2.44 -302.37 3.12 C-300.85 2.97 -300.85 2.97 -299.3 2.81 C-282.89 2.87 -264.7 14.43 -253.05 25.12 C-250.61 27.38 -250.61 27.38 -248.02 27.01 C-244.71 25.9 -242.84 24.25 -240.24 21.94 C-228.1 11.69 -210.52 2.56 -194.37 3.12 C-194.37 2.46 -194.37 1.8 -194.37 1.12 C-45.36 0.02 -45.36 0.02 0 0 Z M-522.37 100.12 C-523.69 102.76 -523.49 104.72 -523.49 107.67 C-523.5 108.85 -523.5 110.03 -523.5 111.25 C-523.5 112.55 -523.5 113.85 -523.5 115.19 C-523.5 116.56 -523.5 117.94 -523.5 119.32 C-523.51 123.07 -523.5 126.82 -523.5 130.56 C-523.5 134.48 -523.5 138.39 -523.5 142.31 C-523.5 148.88 -523.5 155.46 -523.5 162.03 C-523.49 169.65 -523.49 177.26 -523.5 184.87 C-523.5 191.39 -523.5 197.92 -523.5 204.45 C-523.5 208.35 -523.5 212.25 -523.5 216.15 C-523.51 219.82 -523.5 223.48 -523.5 227.15 C-523.5 229.15 -523.5 231.14 -523.5 233.14 C-523.5 234.31 -523.5 235.49 -523.49 236.7 C-523.49 237.73 -523.49 238.76 -523.49 239.82 C-523.63 242.09 -523.63 242.09 -522.37 243.12 C-519.71 243.22 -517.08 243.25 -514.43 243.24 C-513.58 243.24 -512.74 243.25 -511.87 243.25 C-509.03 243.25 -506.19 243.24 -503.34 243.24 C-501.31 243.24 -499.28 243.24 -497.25 243.24 C-491.73 243.24 -486.2 243.23 -480.67 243.22 C-474.9 243.22 -469.13 243.22 -463.36 243.22 C-452.42 243.21 -441.48 243.21 -430.55 243.2 C-418.1 243.18 -405.65 243.18 -393.2 243.17 C-367.59 243.16 -341.98 243.15 -316.37 243.12 C-315.1 239.32 -315.25 235.78 -315.28 231.82 C-315.29 230.97 -315.29 230.12 -315.29 229.25 C-315.3 226.44 -315.32 223.63 -315.35 220.82 C-315.35 219.86 -315.36 218.89 -315.37 217.9 C-315.41 212.8 -315.45 207.69 -315.5 202.59 C-315.55 197.34 -315.57 192.09 -315.6 186.85 C-315.62 182.79 -315.65 178.74 -315.7 174.68 C-315.71 172.75 -315.72 170.82 -315.73 168.89 C-315.78 149.59 -319.29 135.07 -332.89 120.58 C-340.31 113.23 -347.62 107.91 -357.37 104.12 C-358.11 103.79 -358.86 103.46 -359.62 103.12 C-368.47 99.91 -376.94 99.85 -386.25 99.9 C-387.74 99.9 -389.23 99.9 -390.72 99.9 C-394.74 99.89 -398.75 99.91 -402.77 99.92 C-406.98 99.93 -411.19 99.93 -415.39 99.94 C-423.35 99.94 -431.31 99.96 -439.27 99.98 C-448.33 100 -457.4 100.01 -466.46 100.02 C-485.1 100.04 -503.73 100.08 -522.37 100.12 Z " fill="#FDFDFD" transform="translate(888.367057800293,267.8766174316406)"/>
<path d="M0 0 C0.75 -0 1.51 -0.01 2.28 -0.01 C3.87 -0.02 5.46 -0.02 7.05 -0.01 C9.46 -0.01 11.88 -0.04 14.29 -0.06 C15.84 -0.06 17.39 -0.06 18.94 -0.06 C19.65 -0.07 20.37 -0.08 21.1 -0.09 C27.36 -0.03 31.52 1.78 36.85 4.93 C39.19 7.39 39.75 8.78 40.74 11.95 C41 12.76 41.26 13.58 41.52 14.42 C41.81 15.35 41.81 15.35 42.1 16.3 C40.92 16.32 39.73 16.33 38.51 16.34 C34.1 16.4 29.69 16.48 25.29 16.56 C23.38 16.6 21.47 16.62 19.57 16.65 C16.83 16.68 14.08 16.73 11.34 16.79 C10.07 16.8 10.07 16.8 8.77 16.81 C4.08 16.92 0.88 17.24 -2.9 20.3 C-6.19 24.64 -6.19 24.64 -4.9 37.3 C18.37 37.8 18.37 37.8 42.1 38.3 C42.16 44.59 42.23 50.88 42.29 57.36 C42.33 60.32 42.33 60.32 42.37 63.34 C42.38 64.92 42.39 66.5 42.39 68.09 C42.42 69.3 42.42 69.3 42.44 70.53 C42.44 77.24 41.17 81.91 36.66 87.11 C33.18 90.09 30.58 91.54 25.98 91.59 C24.78 91.61 24.78 91.61 23.55 91.63 C22.27 91.63 22.27 91.63 20.95 91.64 C20.06 91.64 19.17 91.65 18.26 91.66 C16.37 91.67 14.49 91.67 12.61 91.67 C9.74 91.68 6.88 91.71 4.01 91.75 C2.18 91.76 0.35 91.76 -1.48 91.76 C-2.34 91.78 -3.19 91.79 -4.07 91.81 C-10.78 91.75 -14.42 89.78 -19.21 84.99 C-21.25 81.74 -21.45 79.07 -21.9 75.3 C-20.07 75.29 -20.07 75.29 -18.21 75.29 C-13.69 75.27 -9.18 75.21 -4.66 75.15 C-2.7 75.13 -0.75 75.11 1.21 75.11 C4.02 75.1 6.83 75.05 9.64 75.01 C10.52 75.01 11.39 75.02 12.28 75.02 C13.51 74.99 13.51 74.99 14.77 74.96 C15.85 74.95 15.85 74.95 16.94 74.94 C19.97 74.23 19.97 74.23 24.1 69.3 C24.43 64.35 24.76 59.4 25.1 54.3 C9.59 54.3 -5.92 54.3 -21.9 54.3 C-21.96 47.66 -22.02 41.02 -22.09 34.18 C-22.11 32.09 -22.14 30 -22.17 27.85 C-22.18 26.19 -22.19 24.52 -22.19 22.86 C-22.21 22 -22.22 21.15 -22.24 20.27 C-22.24 15.18 -21.74 11.7 -18.9 7.3 C-12.89 1.55 -8.19 -0.01 0 0 Z " fill="#FDFDFD" transform="translate(744.8984375,861.69921875)"/>
<path d="M0 0 C0.86 -0 1.73 -0.01 2.62 -0.01 C4.43 -0.01 6.25 -0.01 8.07 0.01 C10.84 0.03 13.6 0.01 16.37 -0.02 C18.14 -0.01 19.92 -0.01 21.69 0 C22.51 -0.01 23.33 -0.02 24.18 -0.02 C29.51 0.06 32.53 1.03 36.78 4.53 C42.85 11.27 41.99 17.67 42.03 26.34 C42.05 27.62 42.07 28.89 42.09 30.2 C42.1 32.04 42.1 32.04 42.11 33.93 C42.11 35.05 42.12 36.17 42.13 37.33 C41.58 42.27 39.94 45.51 36.21 48.78 C35.41 49.36 34.61 49.94 33.78 50.53 C33.12 51.19 32.46 51.85 31.78 52.53 C32.42 53.58 33.05 54.63 33.71 55.71 C34.55 57.09 35.38 58.46 36.21 59.84 C36.64 60.53 37.06 61.22 37.49 61.94 C37.89 62.6 38.3 63.27 38.71 63.96 C39.08 64.57 39.45 65.18 39.84 65.81 C42.26 70.23 42.26 74.63 41.78 79.53 C40.34 83.23 38.8 85.94 35.78 88.53 C31.2 87.07 29.75 83.45 27.65 79.47 C27.26 78.77 26.87 78.07 26.47 77.35 C24.34 73.54 22.38 69.7 20.57 65.73 C19.8 64.18 19.04 62.64 18.28 61.09 C17.83 59.98 17.83 59.98 17.37 58.85 C16.23 56.34 16.23 56.34 12.78 53.53 C7.17 53.2 1.56 52.87 -4.22 52.53 C-4.22 64.08 -4.22 75.63 -4.22 87.53 C-9.26 88.54 -10.19 88.42 -14.48 86.12 C-18.24 82.69 -19.99 79.42 -20.6 74.4 C-20.75 70.48 -20.78 66.57 -20.75 62.66 C-20.76 61.2 -20.76 59.75 -20.77 58.3 C-20.77 55.26 -20.76 52.23 -20.74 49.19 C-20.72 45.31 -20.73 41.44 -20.76 37.56 C-20.77 34.56 -20.77 31.56 -20.76 28.57 C-20.76 27.14 -20.76 25.71 -20.77 24.28 C-20.84 9.95 -20.84 9.95 -16.22 4.53 C-10.86 0.47 -6.6 -0.07 0 0 Z M-2.22 18.53 C-5.61 23.01 -5.61 23.01 -4.22 36.53 C5.68 36.53 15.58 36.53 25.78 36.53 C25.78 29.6 25.78 22.67 25.78 15.53 C22.05 15.45 18.32 15.39 14.59 15.34 C13.53 15.32 12.48 15.29 11.39 15.27 C10.37 15.26 9.35 15.25 8.3 15.24 C7.36 15.22 6.42 15.21 5.46 15.19 C2.22 15.6 0.4 16.61 -2.22 18.53 Z " fill="#FDFDFD" transform="translate(589.22265625,969.46875)"/>
<path d="M0 0 C0.86 -0 1.72 -0.01 2.61 -0.01 C4.42 -0.01 6.23 -0.01 8.05 0.01 C10.8 0.03 13.56 0.01 16.32 -0.02 C18.09 -0.01 19.86 -0.01 21.62 0 C22.85 -0.01 22.85 -0.01 24.1 -0.02 C29.8 0.07 33.12 1.26 37.81 4.53 C43.21 10.89 42.37 18.08 42.25 26.09 C42.26 27.4 42.26 28.7 42.27 30.04 C42.23 36.42 42.16 40.93 38.81 46.53 C34.5 50.53 34.5 50.53 31.81 50.53 C32.28 51.47 32.75 52.41 33.24 53.38 C36.99 60.88 36.99 60.88 37.91 62.74 C38.75 64.41 39.63 66.06 40.52 67.71 C42.38 71.77 42.4 75.15 41.81 79.53 C40.37 83.23 38.83 85.94 35.81 88.53 C31.71 87.16 31.3 85.3 29.25 81.53 C28.55 80.26 27.85 78.99 27.15 77.73 C26.78 77.05 26.4 76.37 26.02 75.68 C24.75 73.42 23.43 71.19 22.1 68.96 C21.42 67.82 21.42 67.82 20.73 66.66 C19.84 65.18 18.95 63.7 18.05 62.22 C17.44 61.19 17.44 61.19 16.82 60.15 C16.45 59.55 16.09 58.94 15.72 58.32 C14.81 56.53 14.81 56.53 13.81 52.53 C7.87 52.53 1.93 52.53 -4.19 52.53 C-4.19 64.41 -4.19 76.29 -4.19 88.53 C-12.1 87.4 -12.1 87.4 -15 84.72 C-15.56 84.22 -16.13 83.72 -16.71 83.2 C-20.09 79.39 -20.44 76.16 -20.48 71.13 C-20.49 69.83 -20.5 68.53 -20.52 67.19 C-20.52 65.78 -20.52 64.36 -20.52 62.95 C-20.53 61.49 -20.54 60.03 -20.54 58.58 C-20.56 55.52 -20.56 52.47 -20.56 49.42 C-20.56 45.52 -20.59 41.62 -20.62 37.71 C-20.64 34.7 -20.65 31.69 -20.64 28.68 C-20.65 27.25 -20.66 25.81 -20.67 24.37 C-20.81 9.93 -20.81 9.93 -16.19 4.53 C-10.83 0.48 -6.59 -0.07 0 0 Z M-3.19 19.53 C-4.98 24.92 -4.19 30.85 -4.19 36.53 C5.71 36.53 15.61 36.53 25.81 36.53 C25.81 29.6 25.81 22.67 25.81 15.53 C22.1 15.42 18.4 15.34 14.69 15.28 C13.64 15.25 12.59 15.21 11.52 15.18 C5.33 15.1 1.43 15.21 -3.19 19.53 Z " fill="#FDFDFD" transform="translate(825.1875,969.46875)"/>
<path d="M0 0 C0.86 -0.01 1.73 -0.01 2.61 -0.02 C4.43 -0.02 6.25 -0.02 8.07 -0.01 C10.84 -0 13.6 -0.03 16.37 -0.06 C18.14 -0.07 19.91 -0.07 21.69 -0.06 C22.92 -0.08 22.92 -0.08 24.17 -0.1 C29.89 -0.03 33.21 1.15 37.91 4.43 C43.31 10.79 42.47 17.99 42.35 26 C42.35 27.3 42.36 28.6 42.37 29.94 C42.33 36.32 42.26 40.84 38.91 46.43 C36.35 48.68 36.35 48.68 33.91 50.43 C33.25 51.09 32.59 51.75 31.91 52.43 C32.55 53.48 33.19 54.53 33.84 55.61 C34.68 56.99 35.51 58.37 36.35 59.75 C36.77 60.44 37.19 61.13 37.62 61.84 C38.03 62.5 38.43 63.17 38.84 63.86 C39.22 64.47 39.59 65.08 39.97 65.72 C42.39 70.14 42.39 74.53 41.91 79.43 C40.47 83.13 38.93 85.84 35.91 88.43 C32.06 86.97 30.88 85.15 29.02 81.54 C28.51 80.55 27.99 79.56 27.46 78.54 C26.46 76.53 25.46 74.51 24.49 72.49 C23.07 69.57 21.59 66.69 20.1 63.81 C19.65 62.82 19.2 61.83 18.73 60.8 C17.08 57.43 17.08 57.43 12.91 53.43 C7.3 53.1 1.69 52.77 -4.09 52.43 C-4.09 64.31 -4.09 76.19 -4.09 88.43 C-12 87.3 -12 87.3 -14.9 84.62 C-15.47 84.12 -16.03 83.62 -16.61 83.1 C-19.99 79.3 -20.35 76.07 -20.4 71.05 C-20.41 69.75 -20.43 68.46 -20.44 67.12 C-20.45 65.71 -20.46 64.3 -20.46 62.89 C-20.47 61.43 -20.48 59.98 -20.49 58.52 C-20.5 55.47 -20.51 52.42 -20.52 49.37 C-20.52 45.48 -20.56 41.59 -20.6 37.7 C-20.63 34.69 -20.64 31.69 -20.64 28.68 C-20.65 27.25 -20.66 25.81 -20.68 24.38 C-20.87 10.49 -20.87 10.49 -16.55 4.88 C-11.68 0.04 -6.45 -0.02 0 0 Z M-3.09 19.43 C-5.63 24.51 -4.09 30.76 -4.09 36.43 C5.81 36.43 15.71 36.43 25.91 36.43 C25.91 29.5 25.91 22.57 25.91 15.43 C22.2 15.33 18.5 15.25 14.79 15.18 C13.74 15.15 12.69 15.12 11.61 15.08 C5.39 15 1.6 15.17 -3.09 19.43 Z " fill="#FDFDFD" transform="translate(668.08984375,969.56640625)"/>
<path d="M0 0 C0.87 -0.01 1.74 -0.02 2.63 -0.02 C4.47 -0.04 6.32 -0.05 8.16 -0.06 C10.96 -0.07 13.76 -0.12 16.56 -0.16 C18.36 -0.17 20.15 -0.18 21.94 -0.19 C23.19 -0.21 23.19 -0.21 24.46 -0.24 C30.23 -0.22 33.54 0.94 38.3 4.24 C41.25 7.61 42.3 10.72 42.3 15.24 C40.56 15.27 40.56 15.27 38.78 15.3 C34.48 15.37 30.17 15.46 25.86 15.56 C23.99 15.59 22.13 15.63 20.27 15.66 C17.58 15.71 14.9 15.76 12.22 15.82 C11.39 15.84 10.56 15.85 9.7 15.86 C4.16 15.88 4.16 15.88 -0.7 18.24 C-3.18 21.67 -3.1 25.36 -3.32 29.49 C-3.4 30.75 -3.47 32.01 -3.55 33.32 C-3.6 34.28 -3.65 35.24 -3.7 36.24 C-2.64 36.23 -1.59 36.23 -0.5 36.22 C3.4 36.2 7.3 36.19 11.2 36.18 C12.89 36.18 14.58 36.17 16.27 36.16 C18.7 36.15 21.12 36.15 23.55 36.14 C24.69 36.13 24.69 36.13 25.85 36.12 C27.67 36.12 29.48 36.18 31.3 36.24 C35.08 40.02 32.3 46.89 32.3 52.24 C20.42 52.24 8.54 52.24 -3.7 52.24 C-3.69 64.89 -3.69 64.89 -0.7 70.24 C4.09 72.51 8.79 72.58 13.98 72.65 C14.79 72.67 15.61 72.69 16.44 72.71 C19.02 72.77 21.6 72.82 24.18 72.86 C25.93 72.9 27.69 72.94 29.44 72.98 C33.73 73.08 38.01 73.16 42.3 73.24 C41.59 78.26 40.57 81.27 37.3 85.24 C32.24 88.48 27.99 88.69 22.18 88.67 C20.88 88.68 20.88 88.68 19.55 88.69 C17.73 88.69 15.91 88.69 14.09 88.68 C11.31 88.68 8.53 88.7 5.75 88.74 C3.98 88.74 2.2 88.74 0.43 88.73 C-0.4 88.75 -1.22 88.76 -2.07 88.77 C-7.42 88.7 -10.44 87.76 -14.7 84.24 C-18.8 79.58 -19.82 77.21 -19.88 71.05 C-19.89 69.75 -19.9 68.44 -19.92 67.1 C-19.92 65.67 -19.93 64.25 -19.94 62.82 C-19.94 62.1 -19.95 61.38 -19.95 60.64 C-19.97 56.83 -19.99 53.03 -19.99 49.22 C-20.01 45.29 -20.04 41.37 -20.08 37.44 C-20.11 34.42 -20.11 31.4 -20.12 28.37 C-20.12 26.93 -20.13 25.48 -20.15 24.03 C-20.18 22.01 -20.17 19.98 -20.17 17.95 C-20.18 16.79 -20.18 15.64 -20.19 14.45 C-19.41 9.36 -16.87 6.27 -13.07 2.93 C-8.76 -0.14 -5.16 0.05 0 0 Z " fill="#FDFDFD" transform="translate(746.69921875,969.76171875)"/>
<path d="M0 0 C0.84 -0 1.68 -0 2.55 -0 C4.32 -0 6.09 0.01 7.86 0.03 C10.55 0.06 13.25 0.05 15.95 0.04 C17.67 0.04 19.4 0.05 21.12 0.06 C21.93 0.06 22.73 0.06 23.55 0.05 C30.01 0.16 34.13 1.63 38.81 6.31 C41.08 9.63 41.49 11.59 42 15.5 C40.85 15.51 39.7 15.51 38.51 15.52 C34.23 15.56 29.95 15.63 25.66 15.7 C23.81 15.73 21.96 15.75 20.11 15.77 C17.44 15.79 14.78 15.84 12.11 15.89 C10.88 15.89 10.88 15.89 9.62 15.89 C4.33 16.02 1.15 16.91 -3 20.5 C-4.11 23.81 -4.32 26.7 -4.57 30.18 C-4.65 31.36 -4.73 32.54 -4.82 33.76 C-4.88 34.66 -4.94 35.57 -5 36.5 C-3.38 36.49 -3.38 36.49 -1.72 36.48 C2.3 36.46 6.31 36.45 10.32 36.44 C12.06 36.44 13.8 36.43 15.54 36.42 C18.03 36.41 20.53 36.4 23.02 36.4 C23.81 36.39 24.59 36.39 25.39 36.38 C27.26 36.38 29.13 36.43 31 36.5 C32 37.5 32 37.5 32.13 40.62 C32.13 41.9 32.12 43.18 32.12 44.5 C32.12 46.41 32.12 46.41 32.13 48.37 C32 51.5 32 51.5 31 52.5 C28.33 52.58 25.69 52.61 23.02 52.59 C22.23 52.59 21.43 52.59 20.61 52.59 C18.05 52.58 15.49 52.57 12.93 52.56 C11.2 52.55 9.47 52.55 7.74 52.54 C3.49 52.53 -0.75 52.52 -5 52.5 C-4.92 54.56 -4.81 56.62 -4.69 58.68 C-4.6 60.41 -4.6 60.41 -4.52 62.16 C-3.97 65.75 -3.27 67.68 -1 70.5 C3.28 73.07 7.94 72.84 12.8 72.91 C13.63 72.93 14.47 72.95 15.33 72.97 C17.99 73.03 20.65 73.07 23.31 73.12 C25.12 73.16 26.92 73.2 28.73 73.24 C33.15 73.33 37.57 73.42 42 73.5 C41.4 77.59 41 80.14 38.18 83.25 C37.68 83.82 37.18 84.39 36.66 84.98 C32.21 89.03 27.85 88.82 22.1 88.83 C20.8 88.84 20.8 88.84 19.48 88.85 C17.65 88.86 15.82 88.87 13.99 88.87 C11.2 88.87 8.42 88.91 5.63 88.95 C3.85 88.95 2.07 88.96 0.29 88.96 C-0.54 88.97 -1.36 88.99 -2.21 89 C-7.97 88.96 -11.38 88.01 -16 84.5 C-21.45 78.11 -20.59 70.65 -20.54 62.62 C-20.54 61.17 -20.54 59.72 -20.55 58.26 C-20.55 55.23 -20.54 52.19 -20.53 49.15 C-20.5 45.28 -20.52 41.4 -20.54 37.52 C-20.55 34.53 -20.55 31.53 -20.54 28.53 C-20.54 27.1 -20.54 25.67 -20.55 24.25 C-20.62 9.91 -20.62 9.91 -16 4.5 C-10.69 0.48 -6.54 -0.09 0 0 Z " fill="#FDFDFD" transform="translate(510.00390625,969.50390625)"/>
<path d="M0 0 C0.73 -0 1.46 -0.01 2.21 -0.01 C3.75 -0.02 5.28 -0.02 6.82 -0.01 C9.15 -0.01 11.48 -0.04 13.81 -0.06 C15.31 -0.06 16.81 -0.06 18.31 -0.06 C19 -0.07 19.69 -0.08 20.4 -0.09 C27.39 -0.02 33.23 2.31 38.22 7.3 C41.89 13.75 41.71 19.95 41.66 27.24 C41.68 28.38 41.7 29.52 41.72 30.7 C41.72 38.15 41.06 44.29 35.74 49.85 C30.75 54.23 26.63 54.44 20.27 54.4 C19.59 54.4 18.9 54.4 18.2 54.4 C15.64 54.39 13.09 54.38 10.54 54.36 C4.82 54.34 -0.89 54.32 -6.78 54.3 C-6.78 66.51 -6.78 78.72 -6.78 91.3 C-13.71 90.31 -15.22 90.07 -19.78 85.3 C-23.82 78.51 -23.21 71.3 -23.18 63.61 C-23.18 62.18 -23.18 60.74 -23.18 59.31 C-23.19 56.32 -23.18 53.32 -23.17 50.33 C-23.15 46.51 -23.16 42.68 -23.18 38.86 C-23.19 35.9 -23.19 32.94 -23.18 29.99 C-23.18 28.58 -23.18 27.17 -23.19 25.76 C-23.19 23.79 -23.18 21.81 -23.17 19.84 C-23.16 18.72 -23.16 17.6 -23.16 16.44 C-22.53 11.3 -20.64 8.14 -16.96 4.55 C-11.53 0.71 -6.54 -0.01 0 0 Z M-5.57 21.57 C-7.05 24.91 -7.11 27.41 -7.03 31.05 C-7.01 32.2 -7 33.35 -6.98 34.54 C-7.09 37.21 -7.09 37.21 -5.78 38.3 C-3.56 38.39 -1.34 38.41 0.88 38.4 C1.55 38.4 2.21 38.4 2.9 38.39 C5.03 38.39 7.16 38.38 9.29 38.36 C10.73 38.36 12.17 38.35 13.61 38.35 C17.15 38.34 20.68 38.32 24.22 38.3 C24.22 31.04 24.22 23.78 24.22 16.3 C20.49 16.22 16.77 16.16 13.04 16.11 C11.98 16.09 10.92 16.06 9.84 16.04 C8.82 16.03 7.79 16.02 6.74 16.01 C5.8 15.99 4.87 15.98 3.9 15.96 C-0.33 16.5 -2.95 18.26 -5.57 21.57 Z " fill="#FDFDFD" transform="translate(513.77734375,861.69921875)"/>
<path d="M0 0 C0.66 0 1.32 0 2 0 C6.11 7.56 10.16 15.16 14.13 22.8 C15.97 26.35 17.84 29.89 19.76 33.4 C30.39 52.93 35.48 67.34 33 90 C27.39 90 21.78 90 16 90 C16.08 88.42 16.16 86.85 16.24 85.23 C16.64 66.23 11.6 54.1 2 38 C1.34 38 0.68 38 0 38 C-3.96 45.92 -7.92 53.84 -12 62 C-8.7 62.66 -5.4 63.32 -2 64 C3.42 67.7 6.11 70.73 8 77 C7.5 78.49 7.5 78.49 7 80 C0.4 80 -6.2 80 -13 80 C-13 82.97 -13 85.94 -13 89 C-14 90 -14 90 -17.82 90.1 C-19.4 90.09 -20.98 90.08 -22.56 90.06 C-23.37 90.06 -24.18 90.05 -25.01 90.05 C-27 90.04 -29 90.02 -31 90 C-32.58 61.22 -32.58 61.22 -24.27 48.14 C-21.67 43.77 -19.65 39.1 -17.5 34.5 C-14.24 27.64 -10.95 20.8 -7.56 14 C-7.26 13.38 -6.95 12.77 -6.64 12.13 C-4.56 8 -2.32 4 0 0 Z " fill="#FDFDFD" transform="translate(602,863)"/>
<path d="M0 0 C0.84 -0 1.69 -0.01 2.55 -0.01 C4.33 -0.01 6.1 -0.01 7.88 0.01 C10.59 0.02 13.29 0.01 16 -0.01 C17.73 -0.01 19.46 -0.01 21.19 0 C21.99 -0.01 22.79 -0.01 23.62 -0.02 C30.1 0.06 34.21 1.52 38.91 6.21 C41.18 9.53 41.59 11.49 42.09 15.4 C40.94 15.41 39.79 15.42 38.61 15.43 C34.33 15.47 30.04 15.53 25.76 15.61 C23.91 15.63 22.06 15.66 20.21 15.67 C17.54 15.69 14.88 15.74 12.21 15.79 C10.98 15.79 10.98 15.79 9.72 15.79 C4.43 15.93 1.25 16.82 -2.91 20.4 C-4.61 25.5 -4.49 31.04 -4.91 36.4 C4 36.4 12.91 36.4 22.09 36.4 C22.09 41.68 22.09 46.96 22.09 52.4 C13.18 52.4 4.27 52.4 -4.91 52.4 C-4.91 64.28 -4.91 76.16 -4.91 88.4 C-13.19 87.21 -13.19 87.21 -16.91 83.4 C-19.48 79.04 -20.29 75.83 -20.33 70.79 C-20.34 69.49 -20.36 68.2 -20.37 66.86 C-20.38 65.46 -20.38 64.06 -20.38 62.66 C-20.38 61.2 -20.39 59.75 -20.4 58.3 C-20.41 55.26 -20.41 52.22 -20.41 49.19 C-20.4 45.31 -20.43 41.44 -20.47 37.56 C-20.5 34.56 -20.5 31.57 -20.5 28.57 C-20.5 27.14 -20.51 25.71 -20.53 24.28 C-20.68 10.47 -20.68 10.47 -16.36 4.85 C-11.54 0.04 -6.4 -0.05 0 0 Z " fill="#FDFDFD" transform="translate(431.90625,969.6015625)"/>
<path d="M0 0 C1.21 -0.01 2.43 -0.03 3.68 -0.04 C7 0.18 9.11 0.89 12.12 2.19 C14.83 1.91 17.28 1.44 19.88 0.66 C26.36 -0.71 33.66 -0.88 39.75 1.75 C43.2 5.29 46.03 8.76 46.23 13.91 C46.19 14.66 46.16 15.41 46.12 16.19 C45.57 16.21 45.01 16.24 44.43 16.26 C41.89 16.38 39.35 16.5 36.81 16.62 C35.93 16.66 35.05 16.7 34.14 16.74 C33.3 16.79 32.45 16.83 31.57 16.87 C30.79 16.91 30.01 16.94 29.21 16.98 C26.93 17.13 26.93 17.13 24.12 18.19 C24.11 19.09 24.1 19.99 24.09 20.91 C24 29.38 23.89 37.84 23.79 46.3 C23.73 50.65 23.68 55 23.63 59.35 C23.58 63.55 23.53 67.74 23.47 71.94 C23.45 73.54 23.43 75.14 23.42 76.75 C23.39 78.99 23.36 81.23 23.33 83.46 C23.31 84.74 23.3 86.02 23.28 87.33 C23.12 90.19 23.12 90.19 22.12 91.19 C16.85 91.19 11.57 91.19 6.12 91.19 C5.79 67.1 5.47 43.01 5.12 18.19 C2.33 17.26 0.36 17 -2.54 16.87 C-3.44 16.83 -4.33 16.79 -5.25 16.74 C-6.18 16.7 -7.11 16.67 -8.06 16.62 C-9.47 16.56 -9.47 16.56 -10.91 16.49 C-13.23 16.39 -15.55 16.29 -17.88 16.19 C-17.62 14.76 -17.34 13.33 -17.06 11.91 C-16.91 11.11 -16.76 10.32 -16.6 9.5 C-15.36 5.56 -13.04 3.77 -9.88 1.19 C-6.42 0.04 -3.64 0.02 0 0 Z " fill="#FDFDFD" transform="translate(668.875,861.8125)"/>
</svg>
